<svg width="145" height="39" viewBox="0 0 145 39" fill="none" xmlns="http://www.w3.org/2000/svg">
<path d="M25.7972 20.3229C25.7772 20.3015 25.7598 20.2833 25.7396 20.2619H25.7374L16.9974 11.38L24.2645 3.93257H24.2693C24.3213 3.87718 24.3671 3.82958 24.4177 3.77598L26.1555 1.99492C27.497 0.685419 27.803 0.587027 27.803 0.587027H27.5294H27.4066H26.0291H23.0624L15.0082 9.29316L7.05219 0.587027H3.98602H2.60833H2.55233H2.21196C2.21196 0.587027 2.64152 0.720617 4.74856 2.88725L5.6341 3.81458C5.67249 3.85558 5.70649 3.89098 5.74569 3.93257H5.74689L12.8889 11.4126L4.34699 20.2619H4.33939C4.2118 20.3981 4.09441 20.5213 3.97562 20.6467L3.08649 21.5678C1.20503 23.4783 0.805664 23.6077 0.805664 23.6077H1.11744H1.20203H2.57973H5.5849L14.9756 13.532L24.4319 23.6077H27.4994H28.8769H29.0293H29.2733C29.2733 23.6077 29.0197 23.5253 27.9692 22.5301L25.7972 20.3229Z" fill="black"/>
<path d="M142.238 12.293C140.934 11.2281 139.086 10.5759 136.694 10.3365L129.553 9.65178C128.858 9.58638 128.282 9.50499 127.825 9.40719C127.369 9.3092 126.89 9.15741 126.391 8.95063C125.891 8.74425 125.515 8.44007 125.266 8.0377C125.016 7.63573 124.891 7.14077 124.891 6.55401C124.891 5.81527 125.119 5.17952 125.576 4.64636C126.032 4.114 126.646 3.71703 127.418 3.45625C128.189 3.19527 128.988 3.00548 129.815 2.88569C130.641 2.7665 131.521 2.70631 132.456 2.70631C134.39 2.70631 136.01 2.96729 137.314 3.48885C137.469 3.55064 137.622 3.61684 137.773 3.68603L137.772 3.68683C140.753 5.15632 140.281 6.13105 140.281 6.13105L140.644 5.97306L141.917 5.4447L141.916 5.4415L143.934 4.63016C141.76 1.5438 137.923 -8.58307e-05 132.423 -8.58307e-05C129.184 -8.58307e-05 126.652 0.500275 124.826 1.5C122.695 2.63031 121.63 4.36938 121.63 6.717C121.63 8.28208 122.173 9.56518 123.261 10.5647C123.803 11.0651 124.483 11.4562 125.299 11.7386C126.113 12.0214 126.885 12.2114 127.614 12.3092C128.342 12.407 129.64 12.543 131.51 12.7167L135.032 13.0427C135.858 13.1081 136.559 13.1953 137.135 13.3037C137.711 13.4127 138.325 13.5921 138.977 13.8417C139.629 14.0918 140.123 14.456 140.461 14.934C140.798 15.4125 140.966 15.9993 140.966 16.6948C140.966 17.9557 140.444 18.9887 139.401 19.7924C138.031 20.8359 135.977 21.3577 133.238 21.3577C130.63 21.3577 128.423 20.9883 126.619 20.2492C126.329 20.1332 126.059 20.012 125.803 19.8874C125.486 19.7272 125.203 19.572 124.963 19.4248C124.961 19.4236 124.959 19.4228 124.958 19.4216C123.053 18.2511 123.413 17.5052 123.413 17.5052L123.05 17.663L121.779 18.1913L119.935 18.9447C121.021 20.7275 122.739 22.0424 125.086 22.8902C127.434 23.7381 130.043 24.1619 132.912 24.1619C135.042 24.1619 136.879 23.9389 138.423 23.4933C139.966 23.0482 141.14 22.45 141.944 21.7003C142.748 20.9501 143.325 20.1624 143.673 19.336C144.02 18.5101 144.194 17.6192 144.194 16.6622C144.194 14.8148 143.542 13.3583 142.238 12.293Z" fill="black"/>
<path d="M56.4749 0.587027H55.0972H53.3523C53.3523 1.36957 53.3849 7.70668 53.4503 19.597L35.5489 0.587027H32.1903V20.2619C32.1903 23.4343 31.7939 23.6077 31.7939 23.6077H32.1903H33.568H35.3205C35.3205 22.4778 35.2987 16.1298 35.2553 4.56512L53.2871 23.6077H56.4827V3.24162C56.5359 0.740416 56.871 0.587027 56.871 0.587027H56.4827H56.4749Z" fill="black"/>
<path d="M93.0865 0.587027H92.6911H92.6903H91.3126H90.9662H89.5888H89.5878H89.1924C89.1924 0.587027 89.5778 0.761614 89.5878 3.81658V20.3781C89.5778 23.4331 89.1924 23.6077 89.1924 23.6077H89.5878H89.5888H90.9662H91.3126H92.6903H92.6911H93.0865C93.0865 23.6077 92.7011 23.4331 92.6911 20.3781V3.81658C92.7011 0.761614 93.0865 0.587027 93.0865 0.587027Z" fill="black"/>
<path d="M114.096 20.5043H101.622V3.93253H101.624C101.624 0.760368 102.02 0.586981 102.02 0.586981H101.624H101.622H100.246H99.8998H98.5223H98.5121H98.126C98.126 0.586981 98.4526 0.738171 98.5121 3.14699V21.0474C98.4526 23.4562 98.126 23.6074 98.126 23.6074H98.5121H98.5223H99.8998H117.066V21.8848V20.5071V20.5043V20.1109C117.066 20.1109 116.899 20.4737 114.096 20.5043Z" fill="black"/>
<path d="M67.1572 15.2929L72.896 3.88017L78.5371 15.2929H67.1572ZM84.8318 20.2619H84.8104L74.722 0.587027H71.2331L60.4715 21.3454C59.2774 23.4743 58.9072 23.6077 58.9072 23.6077H59.2988H59.3034H60.6811H62.9833L65.7877 17.9341H79.9392L82.7434 23.6077H85.2088H86.5259H86.5865H86.9827C86.9827 23.6077 86.4955 23.4343 84.8318 20.2619Z" fill="black"/>
<path d="M32.7987 36.5449C32.4925 36.3713 32.2501 36.1247 32.0711 35.8057C31.8921 35.4868 31.8027 35.1222 31.8027 34.7124C31.8027 34.2817 31.8971 33.9083 32.0867 33.5917C32.2759 33.2753 32.5237 33.0354 32.8299 32.8722C33.1358 32.7086 33.4652 32.627 33.8182 32.627C34.114 32.627 34.3835 32.6774 34.6273 32.7784C34.8711 32.8798 35.0645 33.0212 35.2073 33.2027C35.3499 33.3845 35.4211 33.5893 35.4211 33.8173C35.4211 33.9887 35.3771 34.1199 35.2889 34.2105C35.2005 34.3013 35.0839 34.3465 34.9387 34.3465C34.7985 34.3465 34.6819 34.2999 34.5887 34.2065C34.4951 34.1131 34.4483 33.9963 34.4483 33.8563C34.5263 33.8045 34.5807 33.7475 34.6119 33.6851C34.6431 33.6229 34.6585 33.5451 34.6585 33.4517C34.6585 33.2599 34.5819 33.1027 34.4289 32.981C34.2761 32.859 34.0724 32.798 33.8182 32.798C33.4446 32.798 33.158 32.9316 32.9582 33.1987C32.7585 33.4661 32.6587 33.8409 32.6587 34.3233V35.1014C32.6587 35.5634 32.7561 35.9341 32.9504 36.2141C33.1452 36.4945 33.4342 36.6345 33.8182 36.6345C34.171 36.6345 34.4781 36.5347 34.7405 36.3349C35.0021 36.1351 35.1645 35.8719 35.2267 35.545H35.4057C35.3329 35.9289 35.1527 36.2349 34.8647 36.4633C34.5769 36.6917 34.2277 36.8057 33.8182 36.8057C33.4446 36.8057 33.1048 36.7189 32.7987 36.5449Z" fill="black"/>
<path d="M37.9601 36.7275V36.5718L38.5826 36.4942V32.8912H37.9135L37.2365 34.1749H37.0186L37.1353 32.6964H40.8083L40.9251 34.1749H40.7071L40.0223 32.8912H39.361V36.4942L39.9835 36.5718V36.7275H37.9601Z" fill="black"/>
<path d="M42.6902 38.7978C42.524 38.6628 42.441 38.4812 42.441 38.2529C42.441 38.0975 42.4864 37.9715 42.5774 37.8755C42.668 37.7795 42.7808 37.7317 42.9158 37.7317C43.0142 37.7317 43.1025 37.7523 43.1803 37.7939C43.2583 37.8353 43.3205 37.8977 43.3671 37.9805C43.2893 38.0897 43.2503 38.2035 43.2503 38.3231C43.2503 38.4268 43.2841 38.5124 43.3517 38.5798C43.4189 38.647 43.5045 38.681 43.6083 38.681C43.7329 38.681 43.8405 38.6394 43.9313 38.5564C44.0219 38.4734 44.1039 38.3281 44.1765 38.1207L44.6434 36.7822L42.838 32.9381L42.3164 32.8603V32.7045H44.2543V32.8603L43.7095 32.9537L45.009 35.7319L45.9351 33.0547L45.266 32.8603V32.7045H46.6665V32.8603L46.1373 33.0547L44.3942 38.1207C44.2855 38.4268 44.1543 38.6498 44.0015 38.7898C43.8483 38.9302 43.6291 39 43.3437 39C43.0739 39 42.8562 38.9326 42.6902 38.7978Z" fill="black"/>
<path d="M50.4939 32.8913H49.2018L49.1166 34.1206C49.08 34.6706 49.0386 35.0765 48.992 35.3385C48.9452 35.6007 48.888 35.8199 48.8208 35.9963C48.774 36.1105 48.7234 36.2075 48.669 36.2881C48.6146 36.3682 48.5678 36.4268 48.5288 36.463C48.49 36.4992 48.4652 36.5228 48.455 36.5332H50.4939V32.8913ZM51.9412 38.0117H51.7232L51.0386 36.7276H48.5326L47.8557 38.0117H47.6377L47.7547 36.5332H48.0035C48.1177 36.5332 48.2294 36.4838 48.3382 36.385C48.447 36.2867 48.543 36.1441 48.6262 35.9573C48.6988 35.7861 48.757 35.5733 48.8012 35.3191C48.8452 35.0649 48.8856 34.6656 48.9218 34.1206L48.9842 33.1869L48.276 32.8523V32.6965H51.8166V32.8523L51.272 32.9299V36.5332H51.8246L51.9412 38.0117Z" fill="black"/>
<path d="M53.4385 36.7275V36.5718L53.9834 36.4942V32.9298L53.4385 32.8522V32.6964H55.2285V32.8522L54.7614 32.9298V35.9572L56.7304 33.0856V32.9298L56.2633 32.8522V32.6964H58.0533V32.8522L57.5084 32.9298V36.4942L58.0533 36.5718V36.7275H56.2633V36.5718L56.7304 36.4942V33.4124L54.7614 36.2918V36.4942L55.2285 36.5718V36.7275H53.4385Z" fill="black"/>
<path d="M62.5966 34.6812V32.8916H61.9429C61.6421 32.8916 61.4201 32.959 61.2773 33.0937C61.1348 33.2287 61.0636 33.4439 61.0636 33.7397V33.8407C61.0636 34.1313 61.1362 34.3441 61.2813 34.4788C61.4265 34.6138 61.6263 34.6812 61.8805 34.6812H62.5966ZM59.8806 36.7161C59.7457 36.6567 59.6291 36.5697 59.5303 36.4555L59.6473 36.3387C59.7407 36.4321 59.8313 36.4787 59.9194 36.4787C59.9974 36.4787 60.0558 36.4505 60.0948 36.3931C60.1336 36.3363 60.171 36.2221 60.2076 36.0509L60.2932 35.5996C60.3398 35.3454 60.4254 35.156 60.5498 35.0314C60.6744 34.9068 60.8768 34.824 61.1569 34.7822V34.7434C60.882 34.6966 60.6576 34.5956 60.4836 34.4398C60.31 34.2843 60.223 34.0561 60.223 33.7551C60.223 33.4075 60.3398 33.1443 60.5732 32.9654C60.8066 32.7864 61.1853 32.6968 61.7095 32.6968H63.9351V32.8604L63.3748 32.9382V36.4867L63.9351 36.5721V36.7279H62.0363V36.5721L62.5966 36.4867V34.8756H61.8805C61.6575 34.8756 61.4849 34.925 61.3631 35.0238C61.2411 35.1222 61.1619 35.2856 61.1258 35.514L61.0092 36.1755C60.9676 36.4037 60.8924 36.5657 60.7834 36.6617C60.6744 36.7577 60.5058 36.8057 60.2774 36.8057C60.1478 36.8057 60.0156 36.7759 59.8806 36.7161Z" fill="black"/>
<path d="M68.2695 36.7275V36.5718L68.8609 36.3384V32.9222L68.3161 32.8522V32.6964H69.8258L71.0555 35.607L72.277 32.6964H73.7091V32.8522L73.1642 32.9298V36.4942L73.7091 36.5718V36.7275H71.9191V36.5718L72.3862 36.4942V32.9534L70.7751 36.7275H70.6817L69.0555 32.9534V36.3384L69.6468 36.5718V36.7275H68.2695Z" fill="black"/>
<path d="M77.298 36.3387C77.4458 36.2557 77.5716 36.1351 77.6754 35.9769C77.7792 35.8185 77.8414 35.6282 77.8622 35.405V34.5956H77.3406C76.9152 34.5956 76.5977 34.6904 76.3875 34.8798C76.1775 35.069 76.0723 35.335 76.0723 35.6772C76.0723 35.9625 76.1397 36.1651 76.2745 36.2843C76.4095 36.4037 76.6067 36.4633 76.8662 36.4633C77.0062 36.4633 77.15 36.4219 77.298 36.3387ZM75.6211 36.5449C75.4083 36.3713 75.3018 36.1131 75.3018 35.7705C75.3018 35.283 75.5067 34.9368 75.9167 34.732C76.3263 34.5268 76.801 34.4244 77.3406 34.4244H77.8622V33.8253C77.8622 33.5555 77.8322 33.3465 77.7728 33.1987C77.713 33.051 77.621 32.9474 77.4964 32.8876C77.3718 32.828 77.2032 32.798 76.9904 32.798C76.7466 32.798 76.5651 32.846 76.4459 32.942C76.3263 33.038 76.2669 33.1665 76.2669 33.3271C76.2669 33.4777 76.3395 33.5763 76.4847 33.6229C76.4847 33.7525 76.4355 33.8667 76.3371 33.9655C76.2383 34.0639 76.1215 34.1131 75.9867 34.1131C75.8413 34.1131 75.7245 34.0731 75.6365 33.9927C75.5483 33.9123 75.5043 33.7891 75.5043 33.6229C75.5043 33.3221 75.6547 33.0809 75.9555 32.8994C76.2565 32.7176 76.6325 32.627 77.0838 32.627C78.1213 32.627 78.6405 33.0783 78.6405 33.9809V36.2063C78.6405 36.3205 78.6649 36.4075 78.7143 36.4673C78.7633 36.5267 78.8349 36.5567 78.9283 36.5567C79.0165 36.5567 79.0865 36.5267 79.1385 36.4673C79.1901 36.4075 79.2163 36.3259 79.2163 36.2221H79.3794C79.3794 36.4037 79.3211 36.5463 79.2045 36.6499C79.0877 36.7537 78.9255 36.8057 78.7181 36.8057C78.4793 36.8057 78.2785 36.7369 78.1149 36.5995C77.9518 36.4619 77.8672 36.2481 77.8622 35.9575C77.7376 36.2221 77.5468 36.4297 77.2902 36.5801C77.0334 36.7305 76.7492 36.8057 76.4381 36.8057C76.1061 36.8057 75.8337 36.7189 75.6211 36.5449Z" fill="black"/>
<path d="M80.8711 36.7275V36.5718L81.4159 36.4942V32.9298L80.8711 32.8522V32.6964H82.6608V32.8522L82.194 32.9298V34.5877H84.116V32.9298L83.6493 32.8522V32.6964H85.4389V32.8522L84.8944 32.9298V36.4942L85.4389 36.5718V36.7275H83.6493V36.5718L84.116 36.4942V34.7821H82.194V36.4942L82.6608 36.5718V36.7275H80.8711Z" fill="black"/>
<path d="M87.0557 36.7275V36.5718L87.6006 36.4942V32.9298L87.0557 32.8522V32.6964H88.8457V32.8522L88.3786 32.9298V35.9572L90.3476 33.0856V32.9298L89.8804 32.8522V32.6964H91.6705V32.8522L91.1256 32.9298V36.4942L91.6705 36.5718V36.7275H89.8804V36.5718L90.3476 36.4942V33.4124L88.3786 36.2918V36.4942L88.8457 36.5718V36.7275H87.0557Z" fill="black"/>
<path d="M96.4075 36.6617C96.2987 36.5657 96.2235 36.4037 96.1819 36.1755L96.0263 35.3504C95.9797 35.1066 95.9017 34.9354 95.7927 34.8368C95.6839 34.7384 95.5361 34.6862 95.3492 34.6812H94.6254V36.4867L95.186 36.5721V36.7279H93.2871V36.5721L93.8475 36.4867V32.9382L93.2871 32.8604V32.6968H95.186V32.8604L94.6254 32.9382V34.5022H95.3572C95.4867 34.4918 95.5905 34.4464 95.6683 34.3661C95.7459 34.2857 95.8107 34.1471 95.8629 33.9497L96.0029 33.3895C96.0653 33.1353 96.1495 32.9446 96.2557 32.8174C96.3621 32.6904 96.5271 32.627 96.75 32.627C96.9366 32.627 97.082 32.6774 97.1858 32.7784C97.2896 32.8798 97.3412 33.003 97.3412 33.1481C97.3412 33.2831 97.2986 33.3985 97.213 33.4945C97.1274 33.5905 97.0118 33.6383 96.8668 33.6383C96.7888 33.6383 96.7136 33.6255 96.6411 33.5993C96.6567 33.5527 96.6643 33.5087 96.6643 33.4673C96.6643 33.3999 96.6435 33.3427 96.6023 33.2961C96.5607 33.2495 96.5089 33.2259 96.4465 33.2259C96.3219 33.2259 96.2389 33.2987 96.1975 33.4439L96.0495 34.0043C95.9821 34.2481 95.8941 34.4192 95.7849 34.5178C96.1275 34.549 96.3777 34.6318 96.5361 34.7668C96.6942 34.9018 96.7992 35.1066 96.851 35.3816L96.9834 36.0509C97.0196 36.2221 97.0572 36.3363 97.0962 36.3931C97.135 36.4505 97.1936 36.4787 97.2714 36.4787C97.3594 36.4787 97.4504 36.4321 97.5438 36.3387L97.6606 36.4555C97.5618 36.5697 97.445 36.6567 97.3104 36.7161C97.1754 36.7759 97.043 36.8057 96.9134 36.8057C96.685 36.8057 96.5167 36.7577 96.4075 36.6617Z" fill="black"/>
<path d="M104.103 36.2221C104.3 35.9471 104.399 35.5734 104.399 35.1014V34.3233C104.399 33.8461 104.3 33.4725 104.103 33.2027C103.905 32.933 103.618 32.798 103.239 32.798C102.86 32.798 102.572 32.933 102.375 33.2027C102.178 33.4725 102.079 33.8461 102.079 34.3233V35.1014C102.079 35.5734 102.178 35.9471 102.375 36.2221C102.572 36.4971 102.86 36.6345 103.239 36.6345C103.618 36.6345 103.905 36.4971 104.103 36.2221ZM101.799 36.2299C101.431 35.8459 101.239 35.3636 101.223 34.7824H100.484V36.4945L100.951 36.5721V36.7279H99.1611V36.5721L99.7061 36.4945V32.9302L99.1611 32.8526V32.6968H100.951V32.8526L100.484 32.9302V34.5878H101.223C101.244 34.1987 101.345 33.8563 101.527 33.5607C101.708 33.2649 101.949 33.0354 102.247 32.872C102.545 32.7086 102.876 32.627 103.239 32.627C103.613 32.627 103.954 32.7152 104.262 32.8916C104.571 33.0678 104.813 33.3155 104.99 33.6347C105.166 33.9537 105.254 34.3129 105.254 34.7124C105.254 35.112 105.166 35.471 104.99 35.7899C104.813 36.1093 104.572 36.3581 104.266 36.5371C103.96 36.7161 103.618 36.8057 103.239 36.8057C102.679 36.8057 102.199 36.6137 101.799 36.2299Z" fill="black"/>
<path d="M110.349 35.1093V34.3309C110.349 33.3246 109.988 32.8212 109.267 32.8212C109.039 32.8212 108.831 32.8874 108.645 33.0198C108.458 33.152 108.31 33.3296 108.201 33.5526C108.092 33.776 108.035 34.017 108.03 34.2765V35.1093C108.03 35.3736 108.083 35.6216 108.19 35.8524C108.296 36.083 108.444 36.2674 108.633 36.4048C108.822 36.5424 109.034 36.611 109.267 36.611C109.988 36.611 110.349 36.1106 110.349 35.1093ZM106.707 38.7744L107.252 38.6964V32.938L106.707 32.8602V32.7045H108.03V33.5218C108.16 33.2414 108.335 33.0224 108.555 32.864C108.776 32.7059 109.039 32.6269 109.345 32.6269C109.714 32.6269 110.038 32.7139 110.318 32.8874C110.598 33.0614 110.816 33.3052 110.972 33.6188C111.127 33.9328 111.205 34.2997 111.205 34.7201C111.205 35.1403 111.127 35.5072 110.972 35.8212C110.816 36.1352 110.598 36.3776 110.318 36.5488C110.038 36.7199 109.714 36.8057 109.345 36.8057C109.039 36.8057 108.776 36.7263 108.555 36.5684C108.335 36.4102 108.16 36.1936 108.03 35.9186V38.6964L108.762 38.7744V38.9302H106.707V38.7744Z" fill="black"/>
<path d="M114.915 36.3387C115.063 36.2557 115.189 36.1351 115.293 35.9769C115.396 35.8185 115.459 35.6282 115.479 35.405V34.5956H114.958C114.532 34.5956 114.215 34.6904 114.005 34.8798C113.795 35.069 113.69 35.335 113.69 35.6772C113.69 35.9625 113.757 36.1651 113.892 36.2843C114.027 36.4037 114.224 36.4633 114.483 36.4633C114.623 36.4633 114.767 36.4219 114.915 36.3387ZM113.238 36.5449C113.026 36.3713 112.919 36.1131 112.919 35.7705C112.919 35.283 113.124 34.9368 113.534 34.732C113.943 34.5268 114.418 34.4244 114.958 34.4244H115.479V33.8253C115.479 33.5555 115.45 33.3465 115.39 33.1987C115.33 33.051 115.238 32.9474 115.114 32.8876C114.989 32.828 114.821 32.798 114.608 32.798C114.364 32.798 114.182 32.846 114.063 32.942C113.943 33.038 113.884 33.1665 113.884 33.3271C113.884 33.4777 113.957 33.5763 114.102 33.6229C114.102 33.7525 114.053 33.8667 113.954 33.9655C113.855 34.0639 113.739 34.1131 113.604 34.1131C113.459 34.1131 113.342 34.0731 113.254 33.9927C113.166 33.9123 113.122 33.7891 113.122 33.6229C113.122 33.3221 113.272 33.0809 113.573 32.8994C113.874 32.7176 114.25 32.627 114.701 32.627C115.739 32.627 116.258 33.0783 116.258 33.9809V36.2063C116.258 36.3205 116.282 36.4075 116.331 36.4673C116.381 36.5267 116.452 36.5567 116.545 36.5567C116.634 36.5567 116.704 36.5267 116.756 36.4673C116.807 36.4075 116.833 36.3259 116.833 36.2221H116.997C116.997 36.4037 116.938 36.5463 116.822 36.6499C116.705 36.7537 116.543 36.8057 116.335 36.8057C116.097 36.8057 115.896 36.7369 115.732 36.5995C115.569 36.4619 115.484 36.2481 115.479 35.9575C115.355 36.2221 115.164 36.4297 114.907 36.5801C114.651 36.7305 114.367 36.8057 114.055 36.8057C113.723 36.8057 113.451 36.7189 113.238 36.5449Z" fill="black"/>
</svg>
